{"asset":{"version":"2.0","generator":"babylon.js glTF exporter for 3dsmax 2020 v20191026.3"},"scene":0,"scenes":[{"nodes":[0,1,2],"extensions":{}}],"nodes":[{"mesh":0,"translation":[0.209620744,0.8771821,-3.52850464E-07],"rotation":[0.0,0.0,0.0,1.0],"scale":[1.0,1.0,1.0],"name":"Head"},{"mesh":1,"translation":[-0.0703041852,0.488642842,-7.62939436E-08],"rotation":[0.0,0.0,0.0,1.0],"scale":[1.0,1.0,1.0],"name":"Body"},{"translation":[0.0,0.0,0.0],"rotation":[0.0,0.0,0.0,1.0],"scale":[1.0,1.0,1.0],"name":"Default light"}],"meshes":[{"primitives":[{"attributes":{"POSITION":1,"NORMAL":2,"TEXCOORD_0":3,"TEXCOORD_1":4},"indices":0,"mode":4,"material":0},{"attributes":{"POSITION":6,"NORMAL":7,"TEXCOORD_0":8,"TEXCOORD_1":9},"indices":5,"mode":4,"material":1},{"attributes":{"POSITION":11,"NORMAL":12,"TEXCOORD_0":13,"TEXCOORD_1":14},"indices":10,"mode":4,"material":2},{"attributes":{"POSITION":16,"NORMAL":17,"TEXCOORD_0":18,"TEXCOORD_1":19},"indices":15,"mode":4,"material":3},{"attributes":{"POSITION":21,"NORMAL":22,"TEXCOORD_0":23,"TEXCOORD_1":24},"indices":20,"mode":4,"material":4},{"attributes":{"POSITION":26,"NORMAL":27,"TEXCOORD_0":28,"TEXCOORD_1":29},"indices":25,"mode":4,"material":5},{"attributes":{"POSITION":31,"NORMAL":32,"TEXCOORD_0":33,"TEXCOORD_1":34},"indices":30,"mode":4,"material":6}],"name":"Head"},{"primitives":[{"attributes":{"POSITION":36,"NORMAL":37,"TEXCOORD_0":38,"TEXCOORD_1":39},"indices":35,"mode":4,"material":7},{"attributes":{"POSITION":41,"NORMAL":42,"TEXCOORD_0":43,"TEXCOORD_1":44},"indices":40,"mode":4,"material":8},{"attributes":{"POSITION":46,"NORMAL":47,"TEXCOORD_0":48,"TEXCOORD_1":49},"indices":45,"mode":4,"material":9},{"attributes":{"POSITION":51,"NORMAL":52,"TEXCOORD_0":53,"TEXCOORD_1":54},"indices":50,"mode":4,"material":10},{"attributes":{"POSITION":56,"NORMAL":57,"TEXCOORD_0":58,"TEXCOORD_1":59},"indices":55,"mode":4,"material":11}],"name":"Body"}],"accessors":[{"bufferView":0,"componentType":5123,"count":63639,"type":"SCALAR","name":"accessorIndices"},{"bufferView":1,"componentType":5126,"count":18932,"max":[0.7021412,1.09671581,0.6684498],"min":[-1.28653276,-0.00115173333,-0.666574836],"type":"VEC3","name":"accessorPositions"},{"bufferView":1,"byteOffset":227184,"componentType":5126,"count":18932,"type":"VEC3","name":"accessorNormals"},{"bufferView":2,"componentType":5126,"count":18932,"type":"VEC2","name":"accessorUVs"},{"bufferView":2,"byteOffset":151456,"componentType":5126,"count":18932,"type":"VEC2","name":"accessorUV2s"},{"bufferView":0,"byteOffset":127280,"componentType":5123,"count":13086,"type":"SCALAR","name":"accessorIndices"},{"bufferView":1,"byteOffset":454368,"componentType":5126,"count":3766,"max":[2.68434834,0.446092755,0.297442973],"min":[-0.110285945,0.0169553366,-0.251149118],"type":"VEC3","name":"accessorPositions"},{"bufferView":1,"byteOffset":499560,"componentType":5126,"count":3766,"type":"VEC3","name":"accessorNormals"},{"bufferView":2,"byteOffset":302912,"componentType":5126,"count":3766,"type":"VEC2","name":"accessorUVs"},{"bufferView":2,"byteOffset":333040,"componentType":5126,"count":3766,"type":"VEC2","name":"accessorUV2s"},{"bufferView":0,"byteOffset":153452,"componentType":5123,"count":513,"type":"SCALAR","name":"accessorIndices"},{"bufferView":1,"byteOffset":544752,"componentType":5126,"count":113,"max":[-0.9170732,0.359467775,0.5947803],"min":[-1.27112019,0.2217382,-0.6072618],"type":"VEC3","name":"accessorPositions"},{"bufferView":1,"byteOffset":546108,"componentType":5126,"count":113,"type":"VEC3","name":"accessorNormals"},{"bufferView":2,"byteOffset":363168,"componentType":5126,"count":113,"type":"VEC2","name":"accessorUVs"},{"bufferView":2,"byteOffset":364072,"componentType":5126,"count":113,"type":"VEC2","name":"accessorUV2s"},{"bufferView":0,"byteOffset":154480,"componentType":5123,"count":102,"type":"SCALAR","name":"accessorIndices"},{"bufferView":1,"byteOffset":547464,"componentType":5126,"count":38,"max":[2.68352437,0.188010171,0.0262494218],"min":[2.39644241,0.135510251,-0.0257660579],"type":"VEC3","name":"accessorPositions"},{"bufferView":1,"byteOffset":547920,"componentType":5126,"count":38,"type":"VEC3","name":"accessorNormals"},{"bufferView":2,"byteOffset":364976,"componentType":5126,"count":38,"type":"VEC2","name":"accessorUVs"},{"bufferView":2,"byteOffset":365280,"componentType":5126,"count":38,"type":"VEC2","name":"accessorUV2s"},{"bufferView":0,"byteOffset":154684,"componentType":5123,"count":4620,"type":"SCALAR","name":"accessorIndices"},{"bufferView":1,"byteOffset":548376,"componentType":5126,"count":2302,"max":[0.4229801,0.6253027,0.277247965],"min":[-0.238425747,0.550553,0.218452424],"type":"VEC3","name":"accessorPositions"},{"bufferView":1,"byteOffset":576000,"componentType":5126,"count":2302,"type":"VEC3","name":"accessorNormals"},{"bufferView":2,"byteOffset":365584,"componentType":5126,"count":2302,"type":"VEC2","name":"accessorUVs"},{"bufferView":2,"byteOffset":384000,"componentType":5126,"count":2302,"type":"VEC2","name":"accessorUV2s"},{"bufferView":0,"byteOffset":163924,"componentType":5123,"count":1425,"type":"SCALAR","name":"accessorIndices"},{"bufferView":1,"byteOffset":603624,"componentType":5126,"count":628,"max":[0.812725067,0.2907244,-0.120396785],"min":[0.235750571,0.1722187,-0.171642467],"type":"VEC3","name":"accessorPositions"},{"bufferView":1,"byteOffset":611160,"componentType":5126,"count":628,"type":"VEC3","name":"accessorNormals"},{"bufferView":2,"byteOffset":402416,"componentType":5126,"count":628,"type":"VEC2","name":"accessorUVs"},{"bufferView":2,"byteOffset":407440,"componentType":5126,"count":628,"type":"VEC2","name":"accessorUV2s"},{"bufferView":0,"byteOffset":166776,"componentType":5123,"count":192,"type":"SCALAR","name":"accessorIndices"},{"bufferView":1,"byteOffset":618696,"componentType":5126,"count":80,"max":[0.0314508043,0.585279167,0.59707123],"min":[-0.701898634,0.5371291,-0.0694448054],"type":"VEC3","name":"accessorPositions"},{"bufferView":1,"byteOffset":619656,"componentType":5126,"count":80,"type":"VEC3","name":"accessorNormals"},{"bufferView":2,"byteOffset":412464,"componentType":5126,"count":80,"type":"VEC2","name":"accessorUVs"},{"bufferView":2,"byteOffset":413104,"componentType":5126,"count":80,"type":"VEC2","name":"accessorUV2s"},{"bufferView":0,"byteOffset":167160,"componentType":5125,"count":177072,"type":"SCALAR","name":"accessorIndices"},{"bufferView":1,"byteOffset":620616,"componentType":5126,"count":61006,"max":[1.75268841,0.4935933,0.9127814],"min":[-1.753483,-0.440411836,-0.9127814],"type":"VEC3","name":"accessorPositions"},{"bufferView":1,"byteOffset":1352688,"componentType":5126,"count":61006,"type":"VEC3","name":"accessorNormals"},{"bufferView":2,"byteOffset":413744,"componentType":5126,"count":61006,"type":"VEC2","name":"accessorUVs"},{"bufferView":2,"byteOffset":901792,"componentType":5126,"count":61006,"type":"VEC2","name":"accessorUV2s"},{"bufferView":0,"byteOffset":875448,"componentType":5125,"count":132,"type":"SCALAR","name":"accessorIndices"},{"bufferView":1,"byteOffset":2084760,"componentType":5126,"count":36,"max":[1.630034,0.254282027,0.460831046],"min":[1.62183428,0.207950592,-0.4000334],"type":"VEC3","name":"accessorPositions"},{"bufferView":1,"byteOffset":2085192,"componentType":5126,"count":36,"type":"VEC3","name":"accessorNormals"},{"bufferView":2,"byteOffset":1389840,"componentType":5126,"count":36,"type":"VEC2","name":"accessorUVs"},{"bufferView":2,"byteOffset":1390128,"componentType":5126,"count":36,"type":"VEC2","name":"accessorUV2s"},{"bufferView":0,"byteOffset":875976,"componentType":5125,"count":309,"type":"SCALAR","name":"accessorIndices"},{"bufferView":1,"byteOffset":2085624,"componentType":5126,"count":85,"max":[1.626051,0.254282117,0.460620731],"min":[1.60287476,0.207950592,-0.4000334],"type":"VEC3","name":"accessorPositions"},{"bufferView":1,"byteOffset":2086644,"componentType":5126,"count":85,"type":"VEC3","name":"accessorNormals"},{"bufferView":2,"byteOffset":1390416,"componentType":5126,"count":85,"type":"VEC2","name":"accessorUVs"},{"bufferView":2,"byteOffset":1391096,"componentType":5126,"count":85,"type":"VEC2","name":"accessorUV2s"},{"bufferView":0,"byteOffset":877212,"componentType":5125,"count":7035,"type":"SCALAR","name":"accessorIndices"},{"bufferView":1,"byteOffset":2087664,"componentType":5126,"count":2411,"max":[1.67219353,0.268409163,-0.5529848],"min":[-1.66499329,-0.493593156,-0.9101348],"type":"VEC3","name":"accessorPositions"},{"bufferView":1,"byteOffset":2116596,"componentType":5126,"count":2411,"type":"VEC3","name":"accessorNormals"},{"bufferView":2,"byteOffset":1391776,"componentType":5126,"count":2411,"type":"VEC2","name":"accessorUVs"},{"bufferView":2,"byteOffset":1411064,"componentType":5126,"count":2411,"type":"VEC2","name":"accessorUV2s"},{"bufferView":0,"byteOffset":905352,"componentType":5125,"count":7098,"type":"SCALAR","name":"accessorIndices"},{"bufferView":1,"byteOffset":2145528,"componentType":5126,"count":2423,"max":[1.67197263,0.268302441,0.909994245],"min":[-1.66499376,-0.493593276,0.55312264],"type":"VEC3","name":"accessorPositions"},{"bufferView":1,"byteOffset":2174604,"componentType":5126,"count":2423,"type":"VEC3","name":"accessorNormals"},{"bufferView":2,"byteOffset":1430352,"componentType":5126,"count":2423,"type":"VEC2","name":"accessorUVs"},{"bufferView":2,"byteOffset":1449736,"componentType":5126,"count":2423,"type":"VEC2","name":"accessorUV2s"}],"bufferViews":[{"buffer":0,"byteLength":933744,"name":"bufferViewScalar"},{"buffer":0,"byteOffset":933744,"byteLength":2203680,"byteStride":12,"name":"bufferViewFloatVec3"},{"buffer":0,"byteOffset":3137424,"byteLength":1469120,"byteStride":8,"name":"bufferViewFloatVec2"}],"buffers":[{"uri":"tank_m60a1.bin","byteLength":4606544}],"materials":[{"pbrMetallicRoughness":{"baseColorFactor":[1.0,1.0,1.0,1.0],"baseColorTexture":{"index":1,"texCoord":0},"metallicFactor":0.0,"roughnessFactor":0.450053632},"normalTexture":{"index":0,"texCoord":0},"emissiveFactor":[0.0,0.0,0.0],"alphaMode":"BLEND","name":"turret"},{"pbrMetallicRoughness":{"baseColorFactor":[1.0,1.0,1.0,1.0],"baseColorTexture":{"index":3,"texCoord":0},"metallicFactor":0.0,"roughnessFactor":0.450053632},"normalTexture":{"index":2,"texCoord":0},"emissiveFactor":[0.0,0.0,0.0],"alphaMode":"BLEND","name":"gun"},{"pbrMetallicRoughness":{"baseColorFactor":[0.294,0.294,0.294,1.0],"metallicFactor":0.0,"roughnessFactor":0.450053632},"emissiveFactor":[0.0,0.0,0.0],"alphaMode":"OPAQUE","name":"net_alpha"},{"pbrMetallicRoughness":{"baseColorFactor":[0.294,0.294,0.294,1.0],"metallicFactor":0.0,"roughnessFactor":0.450053632},"emissiveFactor":[0.0,0.0,0.0],"alphaMode":"OPAQUE","name":"rifled_barrel"},{"pbrMetallicRoughness":{"baseColorFactor":[0.294,0.294,0.294,1.0],"metallicFactor":0.0,"roughnessFactor":0.450053632},"emissiveFactor":[0.0,0.0,0.0],"alphaMode":"OPAQUE","name":"mg_01"},{"pbrMetallicRoughness":{"baseColorFactor":[0.294,0.294,0.294,1.0],"metallicFactor":0.0,"roughnessFactor":0.450053632},"emissiveFactor":[0.0,0.0,0.0],"alphaMode":"OPAQUE","name":"mg_02"},{"pbrMetallicRoughness":{"baseColorFactor":[0.294,0.294,0.294,1.0],"metallicFactor":0.0,"roughnessFactor":0.450053632},"emissiveFactor":[0.0,0.0,0.0],"alphaMode":"OPAQUE","name":"turret_glass"},{"pbrMetallicRoughness":{"baseColorFactor":[1.0,1.0,1.0,1.0],"baseColorTexture":{"index":5,"texCoord":0},"metallicFactor":0.0,"roughnessFactor":0.450053632},"normalTexture":{"index":4,"texCoord":0},"emissiveFactor":[0.0,0.0,0.0],"alphaMode":"BLEND","name":"body"},{"pbrMetallicRoughness":{"baseColorFactor":[0.294,0.294,0.294,1.0],"metallicFactor":0.0,"roughnessFactor":0.450053632},"emissiveFactor":[0.0,0.0,0.0],"alphaMode":"OPAQUE","name":"headlight_glass"},{"pbrMetallicRoughness":{"baseColorFactor":[0.294,0.294,0.294,1.0],"metallicFactor":0.0,"roughnessFactor":0.450053632},"emissiveFactor":[0.0,0.0,0.0],"alphaMode":"OPAQUE","name":"headlight_mirror"},{"pbrMetallicRoughness":{"baseColorFactor":[1.0,1.0,1.0,1.0],"baseColorTexture":{"index":7,"texCoord":0},"metallicFactor":0.0,"roughnessFactor":0.450053632},"normalTexture":{"index":6,"texCoord":0},"emissiveFactor":[0.0,0.0,0.0],"alphaMode":"BLEND","name":"track_l"},{"pbrMetallicRoughness":{"baseColorFactor":[1.0,1.0,1.0,1.0],"baseColorTexture":{"index":7,"texCoord":0},"metallicFactor":0.0,"roughnessFactor":0.328809023},"emissiveFactor":[0.0,0.0,0.0],"alphaMode":"BLEND","name":"track_r"}],"textures":[{"sampler":0,"source":0,"name":"sample_m60a1_turret_n.png"},{"sampler":0,"source":1,"name":"sample_m60a1_turret_c.png"},{"sampler":0,"source":2,"name":"sample_m60a1_gun_n.png"},{"sampler":0,"source":3,"name":"sample_m60a1_gun_c.png"},{"sampler":0,"source":4,"name":"sample_m60a1_body_n.png"},{"sampler":0,"source":5,"name":"sample_m60a1_body_c.png"},{"sampler":0,"source":6,"name":"sample__m60a1_track_n.png"},{"sampler":0,"source":7,"name":"sample__m60a1_track_c.png"},{"sampler":0,"source":7,"name":"sample__m60a1_track_c.png"}],"images":[{"uri":"Textures/sample_m60a1_turret_n.png"},{"uri":"Textures/sample_m60a1_turret_c.png"},{"uri":"Textures/sample_m60a1_gun_n.png"},{"uri":"Textures/sample_m60a1_gun_c.png"},{"uri":"Textures/sample_m60a1_body_n.png"},{"uri":"Textures/sample_m60a1_body_c.png"},{"uri":"Textures/sample__m60a1_track_n.png"},{"uri":"Textures/sample__m60a1_track_c.png"}],"samplers":[{"magFilter":9729,"minFilter":9987,"wrapS":10497,"wrapT":10497}]}